<?xml version="1.0" encoding="UTF-8" standalone="no"?>
<!-- Created with Inkscape (http://www.inkscape.org/) -->

<svg
   xmlns:dc="http://purl.org/dc/elements/1.1/"
   xmlns:cc="http://creativecommons.org/ns#"
   xmlns:rdf="http://www.w3.org/1999/02/22-rdf-syntax-ns#"
   xmlns:svg="http://www.w3.org/2000/svg"
   xmlns="http://www.w3.org/2000/svg"
   xmlns:sodipodi="http://sodipodi.sourceforge.net/DTD/sodipodi-0.dtd"
   xmlns:inkscape="http://www.inkscape.org/namespaces/inkscape"
   width="210mm"
   height="297mm"
   viewBox="0 0 210 297"
   version="1.1"
   id="svg8"
   inkscape:version="0.92.3 (2405546, 2018-03-11)"
   sodipodi:docname="c.svg">
  <defs
     id="defs2" />
  <sodipodi:namedview
     id="base"
     pagecolor="#ffffff"
     bordercolor="#666666"
     borderopacity="1.0"
     inkscape:pageopacity="0.0"
     inkscape:pageshadow="2"
     inkscape:zoom="22.627417"
     inkscape:cx="349.11753"
     inkscape:cy="829.4562"
     inkscape:document-units="mm"
     inkscape:current-layer="layer1"
     showgrid="false"
     inkscape:window-width="3840"
     inkscape:window-height="2096"
     inkscape:window-x="3840"
     inkscape:window-y="27"
     inkscape:window-maximized="1"
     showguides="true"
     inkscape:guide-bbox="true" />
  <metadata
     id="metadata5">
    <rdf:RDF>
      <cc:Work
         rdf:about="">
        <dc:format>image/svg+xml</dc:format>
        <dc:type
           rdf:resource="http://purl.org/dc/dcmitype/StillImage" />
        <dc:title></dc:title>
      </cc:Work>
    </rdf:RDF>
  </metadata>
  <g
     inkscape:label="Layer 1"
     inkscape:groupmode="layer"
     id="layer1">
    <g
       id="g127">
      <g
         id="text3715"
         style="font-style:normal;font-variant:normal;font-weight:normal;font-stretch:normal;font-size:10.04463768px;line-height:1.25;font-family:mononoki;-inkscape-font-specification:mononoki;letter-spacing:0px;word-spacing:0px;fill:#000000;fill-opacity:1;stroke:none;stroke-width:0.25111592"
         transform="matrix(1.0536302,0,0,0.94909963,545.76437,215.41924)"
         aria-label="C">
        <path
           inkscape:connector-curvature="0"
           id="path3751"
           style="font-style:normal;font-variant:normal;font-weight:normal;font-stretch:normal;font-family:mononoki;-inkscape-font-specification:mononoki;stroke-width:0.25111592"
           d="m -434.27785,-141.62424 q 0.0294,0.0588 0.0294,0.11771 0,0.14714 -0.15695,0.20599 -0.68665,0.29428 -1.35367,0.29428 -0.64741,0 -1.21635,-0.29428 -0.55912,-0.29428 -0.92206,-0.99073 -0.36294,-0.70626 -0.36294,-1.85394 v -0.78474 q 0,-1.14768 0.36294,-1.84413 0.36294,-0.70627 0.92206,-1.00054 0.56894,-0.29428 1.21635,-0.29428 0.65721,0 1.35367,0.29428 0.15695,0.0589 0.15695,0.20599 0,0.0589 -0.0294,0.11771 l -0.0981,0.23542 q -0.0589,0.15695 -0.206,0.15695 -0.0687,0 -0.1079,-0.0196 -0.61798,-0.22561 -1.08882,-0.22561 -0.69646,0 -1.1673,0.5297 -0.47084,0.5297 -0.47084,1.84413 v 0.78474 q 0,1.31443 0.47084,1.84413 0.47084,0.5297 1.1673,0.5297 0.47084,0 1.08882,-0.22561 0.0392,-0.0196 0.1079,-0.0196 0.14714,0 0.206,0.15695 z" />
      </g>
      <path
         inkscape:connector-curvature="0"
         id="text3719"
         d="m 85.83845,74.348049 -0.27905,0.005 c -0.17225,0.003 -0.25715,0.141198 -0.2553,0.414074 l 0.009,1.275008 a 2.704892,2.9014567 0 0 1 0.79169,-0.512909 l -0.005,-0.775683 c -0.002,-0.272877 -0.0887,-0.408108 -0.26096,-0.405169 z m -0.49559,6.112264 0.008,1.23191 c 0.002,0.272877 0.0922,0.407755 0.27131,0.404707 l 0.26871,-0.005 c 0.17224,-0.003 0.25712,-0.140724 0.25527,-0.4136 l -0.005,-0.725108 a 2.704892,2.9014567 0 0 1 -0.79841,-0.493227 z"
         style="font-style:normal;font-weight:normal;font-size:13.99144268px;line-height:1.25;font-family:sans-serif;letter-spacing:0px;word-spacing:0px;fill:#000000;fill-opacity:1;stroke:none;stroke-width:0.33301875" />
      <path
         inkscape:connector-curvature="0"
         id="text3723"
         d="m 86.80685,74.34805 -0.27905,0.005 c -0.17225,0.003 -0.25712,0.140751 -0.25527,0.413659 l 0.005,0.721892 a 2.704892,2.901795 0 0 1 0.79528,-0.13302 l -0.004,-0.602445 c -0.002,-0.272908 -0.0892,-0.407691 -0.26149,-0.404753 z m -0.49196,6.691058 0.005,0.653509 c 0.002,0.272899 0.0922,0.407804 0.27131,0.404754 l 0.26871,-0.005 c 0.17224,-0.003 0.25765,-0.140752 0.2558,-0.413649 l -0.004,-0.521867 a 2.704892,2.901795 0 0 1 -0.0331,0.001 2.704892,2.901795 0 0 1 -0.7638,-0.119457 z"
         style="font-style:normal;font-weight:normal;font-size:13.99144268px;line-height:1.25;font-family:sans-serif;letter-spacing:0px;word-spacing:0px;fill:#000000;fill-opacity:1;stroke:none;stroke-width:0.33303818" />
    </g>
  </g>
</svg>
